<?xml version="1.0" standalone="no"?>
<!DOCTYPE svg PUBLIC "-//W3C//DTD SVG 20010904//EN"
 "http://www.w3.org/TR/2001/REC-SVG-20010904/DTD/svg10.dtd">
<svg version="1.0" xmlns="http://www.w3.org/2000/svg"
 width="260.000000pt" height="260.000000pt" viewBox="0 0 260.000000 260.000000"
 preserveAspectRatio="xMidYMid meet">
<metadata>
Created by potrace 1.11, written by Peter Selinger 2001-2013
</metadata>
<g transform="translate(0.000000,260.000000) scale(0.100000,-0.100000)"
fill="#000000" stroke="none">
<path d="M10 1533 c1 -282 6 -511 11 -543 12 -62 67 -182 103 -222 57 -64 133
-111 236 -145 66 -22 288 -27 370 -8 84 20 195 75 242 120 77 74 131 181 144
288 5 40 9 890 5 980 -1 15 -13 17 -116 17 l-115 0 0 -472 c0 -260 -3 -489 -6
-508 -21 -126 -112 -219 -233 -237 -157 -23 -297 21 -354 112 -49 78 -51 97
-53 610 -2 264 -3 483 -3 488 -1 4 -53 7 -116 7 l-115 0 0 -487z"/>
<path d="M1471 1320 l0 -701 117 3 117 3 0 313 0 312 32 0 c18 1 143 1 278 1
135 0 265 0 289 -1 l44 0 0 -287 c0 -159 1 -300 1 -315 l1 -28 115 0 115 0 0
700 0 700 -115 0 c-85 0 -115 -3 -116 -12 0 -7 -1 -136 -1 -285 l0 -273 -37 0
c-218 -3 -591 -1 -598 3 -4 3 -8 132 -8 286 l0 281 -117 0 -117 0 0 -700z"/>
</g>
</svg>
